<svg id="Layer_1" data-name="Layer 1" xmlns="http://www.w3.org/2000/svg" viewBox="0 0 273.31 262.27"><defs><style>.cls-1{fill:#0b9d58;}.cls-2{fill:#db4536;}.cls-3{fill:#f3b41b;}</style></defs><path class="cls-1" d="M380.14,249v90.1h-20V249a110.12,110.12,0,0,0-220.24,0v90.1h-20V249a130.14,130.14,0,1,1,260.28,0Z" transform="translate(-113.34 -118.87)"/><path class="cls-2" d="M340.1,249v90.1h-20V249a70.08,70.08,0,0,0-140.15,0v90.1h-20V249a90.1,90.1,0,0,1,180.2,0Z" transform="translate(-113.34 -118.87)"/><path class="cls-3" d="M300.06,249.14v90H280V249A30,30,0,1,0,220,249v90.1H199.7v-90a50.18,50.18,0,1,1,100.36,0Z" transform="translate(-113.34 -118.87)"/><path class="cls-3" d="M260,249v90.1H240V249a10,10,0,0,1,20,0Z" transform="translate(-113.34 -118.87)"/><path class="cls-2" d="M140.42,375.76h-21.1v-21.1h21.1Zm-20-1.07h19v-19h-19Z" transform="translate(-113.34 -118.87)"/><path class="cls-2" d="M180.34,375.76h-21.1v-21.1h21.1Zm-20-1.07h19v-19h-19Z" transform="translate(-113.34 -118.87)"/><path class="cls-2" d="M220.5,375.76H199.16v-21.1H220.5Zm-20.27-1.07h19.21v-19H200.23Z" transform="translate(-113.34 -118.87)"/><path class="cls-2" d="M260.56,375.76h-21.1v-21.1h21.1Zm-20-1.07h19v-19h-19Z" transform="translate(-113.34 -118.87)"/><path class="cls-2" d="M300.6,375.76H279.51v-21.1H300.6Zm-20-1.07h18.95v-19H280.58Z" transform="translate(-113.34 -118.87)"/><path class="cls-2" d="M340.65,375.76h-21.1v-21.1h21.1Zm-20-1.07h19v-19h-19Z" transform="translate(-113.34 -118.87)"/><path class="cls-2" d="M380.68,375.76h-21.1v-21.1h21.1Zm-20-1.07h19v-19h-19Z" transform="translate(-113.34 -118.87)"/><path class="cls-2" d="M203.11,372.68V357.73h6.36a13.32,13.32,0,0,1,2.9.23,3.59,3.59,0,0,1,2.32,1.61,4.33,4.33,0,0,1,.65,2.36q0,3.57-3.94,4.16a7,7,0,0,1,1.91,1.59,20.89,20.89,0,0,1,1.42,2.09l1.83,2.91H213l-2.19-3.25-1.07-1.59a3.45,3.45,0,0,0-1.43-1.23,4.75,4.75,0,0,0-1.52-.17h-.61v6.24Zm3-8.62h2.23c1.11,0,1.75,0,1.92,0a2.18,2.18,0,0,0,1.65-.78,2,2,0,0,0,.31-1.12,1.66,1.66,0,0,0-1.54-1.82c-.22,0-1,0-2.22,0h-2.35Z" transform="translate(-113.34 -118.87)"/><path class="cls-2" d="M243.28,372.68V357.73h6.36a13.42,13.42,0,0,1,2.91.23,3.6,3.6,0,0,1,2.31,1.61,4.26,4.26,0,0,1,.66,2.36q0,3.57-4,4.16a7.09,7.09,0,0,1,1.92,1.59,20.89,20.89,0,0,1,1.42,2.09l1.82,2.91h-3.6l-2.19-3.25-1.08-1.59a3.39,3.39,0,0,0-1.43-1.23,4.71,4.71,0,0,0-1.52-.17h-.61v6.24Zm3-8.62h2.23c1.11,0,1.75,0,1.92,0a2.16,2.16,0,0,0,1.65-.78,1.92,1.92,0,0,0,.31-1.12,1.65,1.65,0,0,0-1.54-1.82c-.22,0-1,0-2.21,0H246.3Z" transform="translate(-113.34 -118.87)"/><path class="cls-2" d="M284,367.82l2.93-.28a3,3,0,0,0,3.27,2.85,3.94,3.94,0,0,0,1.94-.44,1.77,1.77,0,0,0,1-1.61c0-.71-.47-1.23-1.4-1.55q-.51-.18-2.43-.66a8.26,8.26,0,0,1-3.4-1.47,3.91,3.91,0,0,1-1.38-3,3.72,3.72,0,0,1,.7-2.21A4.22,4.22,0,0,1,287,358a7.45,7.45,0,0,1,3-.52,6.91,6.91,0,0,1,3.94,1,4.2,4.2,0,0,1,1.79,3.52l-3,.13a2.44,2.44,0,0,0-.87-1.69,3.14,3.14,0,0,0-1.87-.47,3.45,3.45,0,0,0-2.06.54,1.09,1.09,0,0,0-.48.93,1.14,1.14,0,0,0,.45.9,8.53,8.53,0,0,0,2.81,1.06,19.44,19.44,0,0,1,3.23,1,4.1,4.1,0,0,1,2.24,3.91,4.24,4.24,0,0,1-.74,2.45,4.35,4.35,0,0,1-2,1.62,8.56,8.56,0,0,1-3.25.54C286.43,372.94,284.38,371.24,284,367.82Z" transform="translate(-113.34 -118.87)"/><path class="cls-2" d="M324,367.82l2.94-.28a3,3,0,0,0,3.27,2.85,3.88,3.88,0,0,0,1.93-.44,1.75,1.75,0,0,0,1-1.61c0-.71-.46-1.23-1.39-1.55q-.51-.18-2.43-.66a8.19,8.19,0,0,1-3.4-1.47,3.91,3.91,0,0,1-1.38-3,3.72,3.72,0,0,1,.7-2.21,4.25,4.25,0,0,1,1.81-1.44,7.48,7.48,0,0,1,2.95-.52,6.94,6.94,0,0,1,4,1,4.2,4.2,0,0,1,1.79,3.52l-3,.13a2.52,2.52,0,0,0-.87-1.69A3.16,3.16,0,0,0,330,360a3.49,3.49,0,0,0-2.07.54,1.1,1.1,0,0,0-.47.93,1.14,1.14,0,0,0,.45.9,8.45,8.45,0,0,0,2.8,1.06,19.1,19.1,0,0,1,3.23,1,4.09,4.09,0,0,1,2.25,3.91,4.31,4.31,0,0,1-.74,2.45,4.4,4.4,0,0,1-2,1.62,8.58,8.58,0,0,1-3.26.54C326.48,372.94,324.42,371.24,324,367.82Z" transform="translate(-113.34 -118.87)"/><path class="cls-2" d="M364.05,367.82l2.94-.28a3,3,0,0,0,3.26,2.85,3.92,3.92,0,0,0,1.94-.44,1.77,1.77,0,0,0,1-1.61c0-.71-.47-1.23-1.4-1.55-.34-.12-1.15-.34-2.42-.66a8.13,8.13,0,0,1-3.4-1.47,3.89,3.89,0,0,1-1.39-3,3.73,3.73,0,0,1,.71-2.21A4.19,4.19,0,0,1,367.1,358a7.48,7.48,0,0,1,2.95-.52,6.91,6.91,0,0,1,3.94,1,4.18,4.18,0,0,1,1.79,3.52l-3,.13a2.49,2.49,0,0,0-.88-1.69A3.12,3.12,0,0,0,370,360a3.47,3.47,0,0,0-2.06.54,1.09,1.09,0,0,0-.48.93,1.12,1.12,0,0,0,.46.9,8.35,8.35,0,0,0,2.8,1.06,19.44,19.44,0,0,1,3.23,1,4.1,4.1,0,0,1,2.24,3.91,4.3,4.3,0,0,1-.73,2.45,4.43,4.43,0,0,1-2,1.62,8.52,8.52,0,0,1-3.25.54C366.51,372.94,364.45,371.24,364.05,367.82Z" transform="translate(-113.34 -118.87)"/><path class="cls-2" d="M122.65,372.68V357.73h4.52l2.72,10.2,2.68-10.2h4.53v14.95h-2.81V360.9l-3,11.78h-2.9l-3-11.78v11.78Z" transform="translate(-113.34 -118.87)"/><path class="cls-2" d="M162.57,372.68V357.73h4.52l2.72,10.2,2.68-10.2H177v14.95h-2.81V360.9l-3,11.78h-2.9l-3-11.78v11.78Z" transform="translate(-113.34 -118.87)"/><path class="cls-1" d="M386.66,381.13H113.34V349.28H386.66Zm-271.9-1.42H385.24v-29H114.76Z" transform="translate(-113.34 -118.87)"/></svg>