<svg xmlns="http://www.w3.org/2000/svg" xmlns:xlink="http://www.w3.org/1999/xlink" width="500" zoomAndPan="magnify" viewBox="0 0 375 374.999991" height="500" preserveAspectRatio="xMidYMid meet" version="1.0"><defs><g/><clipPath id="6a089e1e80"><path d="M 81.28125 150.640625 L 307.21875 150.640625 L 307.21875 224.101562 L 81.28125 224.101562 Z M 81.28125 150.640625 " clip-rule="nonzero"/></clipPath><clipPath id="8b3f57a9c0"><path d="M 81.289062 150.640625 L 307.03125 150.640625 L 307.03125 224.09375 L 81.289062 224.09375 Z M 81.289062 150.640625 " clip-rule="nonzero"/></clipPath><clipPath id="16c64d8850"><path d="M 142.449219 213.507812 L 246.050781 213.507812 L 246.050781 228.773438 L 142.449219 228.773438 Z M 142.449219 213.507812 " clip-rule="nonzero"/></clipPath></defs><rect x="-37.5" width="450" fill="#ffffff" y="-37.499999" height="449.999989" fill-opacity="1"/><rect x="-37.5" width="450" fill="#000000" y="-37.499999" height="449.999989" fill-opacity="1"/><g clip-path="url(#6a089e1e80)"><path fill="#000000" d="M 81.28125 150.640625 L 307.117188 150.640625 L 307.117188 224.101562 L 81.28125 224.101562 Z M 81.28125 150.640625 " fill-opacity="1" fill-rule="nonzero"/></g><g clip-path="url(#8b3f57a9c0)"><path stroke-linecap="butt" transform="matrix(0.75, 0, 0, 0.75, 81.289247, 150.640435)" fill="none" stroke-linejoin="miter" d="M -0.000246216 0.000253456 L 301.213335 0.000253456 L 301.213335 97.937766 L -0.000246216 97.937766 Z M -0.000246216 0.000253456 " stroke="#ffffff" stroke-width="12" stroke-opacity="1" stroke-miterlimit="4"/></g><g clip-path="url(#16c64d8850)"><path fill="#000000" d="M 142.449219 213.507812 L 246.066406 213.507812 L 246.066406 228.773438 L 142.449219 228.773438 Z M 142.449219 213.507812 " fill-opacity="1" fill-rule="nonzero"/></g><g fill="#ffffff" fill-opacity="1"><g transform="translate(111.470504, 201.24958)"><g><path d="M 36.765625 -30.125 L 36.765625 0 L 29.4375 0 L 29.4375 -18.0625 L 22.703125 0 L 16.78125 0 L 10 -18.109375 L 10 0 L 2.65625 0 L 2.65625 -30.125 L 11.328125 -30.125 L 19.78125 -9.265625 L 28.140625 -30.125 Z M 36.765625 -30.125 "/></g></g></g><g fill="#ffffff" fill-opacity="1"><g transform="translate(152.448175, 201.24958)"><g><path d="M 10 -24.234375 L 10 -18.15625 L 19.828125 -18.15625 L 19.828125 -12.484375 L 10 -12.484375 L 10 -5.875 L 21.109375 -5.875 L 21.109375 0 L 2.65625 0 L 2.65625 -30.125 L 21.109375 -30.125 L 21.109375 -24.234375 Z M 10 -24.234375 "/></g></g></g><g fill="#ffffff" fill-opacity="1"><g transform="translate(177.249496, 201.24958)"><g><path d="M 18.015625 0 L 11.75 -11.375 L 10 -11.375 L 10 0 L 2.65625 0 L 2.65625 -30.125 L 14.96875 -30.125 C 17.34375 -30.125 19.367188 -29.707031 21.046875 -28.875 C 22.722656 -28.039062 23.972656 -26.898438 24.796875 -25.453125 C 25.628906 -24.015625 26.046875 -22.410156 26.046875 -20.640625 C 26.046875 -18.640625 25.476562 -16.851562 24.34375 -15.28125 C 23.21875 -13.707031 21.550781 -12.585938 19.34375 -11.921875 L 26.296875 0 Z M 10 -16.5625 L 14.546875 -16.5625 C 15.890625 -16.5625 16.894531 -16.890625 17.5625 -17.546875 C 18.238281 -18.203125 18.578125 -19.132812 18.578125 -20.34375 C 18.578125 -21.476562 18.238281 -22.375 17.5625 -23.03125 C 16.894531 -23.695312 15.890625 -24.03125 14.546875 -24.03125 L 10 -24.03125 Z M 10 -16.5625 "/></g></g></g><g fill="#ffffff" fill-opacity="1"><g transform="translate(206.813615, 201.24958)"><g><path d="M 18.015625 0 L 11.75 -11.375 L 10 -11.375 L 10 0 L 2.65625 0 L 2.65625 -30.125 L 14.96875 -30.125 C 17.34375 -30.125 19.367188 -29.707031 21.046875 -28.875 C 22.722656 -28.039062 23.972656 -26.898438 24.796875 -25.453125 C 25.628906 -24.015625 26.046875 -22.410156 26.046875 -20.640625 C 26.046875 -18.640625 25.476562 -16.851562 24.34375 -15.28125 C 23.21875 -13.707031 21.550781 -12.585938 19.34375 -11.921875 L 26.296875 0 Z M 10 -16.5625 L 14.546875 -16.5625 C 15.890625 -16.5625 16.894531 -16.890625 17.5625 -17.546875 C 18.238281 -18.203125 18.578125 -19.132812 18.578125 -20.34375 C 18.578125 -21.476562 18.238281 -22.375 17.5625 -23.03125 C 16.894531 -23.695312 15.890625 -24.03125 14.546875 -24.03125 L 10 -24.03125 Z M 10 -16.5625 "/></g></g></g><g fill="#ffffff" fill-opacity="1"><g transform="translate(236.377735, 201.24958)"><g><path d="M 10 -30.125 L 10 0 L 2.65625 0 L 2.65625 -30.125 Z M 10 -30.125 "/></g></g></g><g fill="#ffffff" fill-opacity="1"><g transform="translate(250.623665, 201.24958)"><g><path d="M 13.5625 0.296875 C 11.351562 0.296875 9.375 -0.0546875 7.625 -0.765625 C 5.882812 -1.484375 4.492188 -2.539062 3.453125 -3.9375 C 2.410156 -5.34375 1.859375 -7.035156 1.796875 -9.015625 L 9.609375 -9.015625 C 9.722656 -7.898438 10.109375 -7.046875 10.765625 -6.453125 C 11.421875 -5.867188 12.28125 -5.578125 13.34375 -5.578125 C 14.425781 -5.578125 15.28125 -5.828125 15.90625 -6.328125 C 16.539062 -6.828125 16.859375 -7.519531 16.859375 -8.40625 C 16.859375 -9.15625 16.609375 -9.769531 16.109375 -10.25 C 15.609375 -10.738281 14.992188 -11.140625 14.265625 -11.453125 C 13.535156 -11.765625 12.5 -12.125 11.15625 -12.53125 C 9.207031 -13.125 7.617188 -13.722656 6.390625 -14.328125 C 5.160156 -14.929688 4.101562 -15.816406 3.21875 -16.984375 C 2.332031 -18.160156 1.890625 -19.691406 1.890625 -21.578125 C 1.890625 -24.378906 2.90625 -26.570312 4.9375 -28.15625 C 6.96875 -29.75 9.613281 -30.546875 12.875 -30.546875 C 16.1875 -30.546875 18.859375 -29.75 20.890625 -28.15625 C 22.921875 -26.570312 24.007812 -24.363281 24.15625 -21.53125 L 16.21875 -21.53125 C 16.15625 -22.507812 15.796875 -23.273438 15.140625 -23.828125 C 14.484375 -24.390625 13.640625 -24.671875 12.609375 -24.671875 C 11.722656 -24.671875 11.007812 -24.429688 10.46875 -23.953125 C 9.925781 -23.484375 9.65625 -22.804688 9.65625 -21.921875 C 9.65625 -20.953125 10.113281 -20.191406 11.03125 -19.640625 C 11.945312 -19.097656 13.375 -18.515625 15.3125 -17.890625 C 17.257812 -17.234375 18.835938 -16.601562 20.046875 -16 C 21.265625 -15.40625 22.316406 -14.535156 23.203125 -13.390625 C 24.097656 -12.242188 24.546875 -10.769531 24.546875 -8.96875 C 24.546875 -7.25 24.109375 -5.6875 23.234375 -4.28125 C 22.359375 -2.882812 21.09375 -1.769531 19.4375 -0.9375 C 17.78125 -0.113281 15.820312 0.296875 13.5625 0.296875 Z M 13.5625 0.296875 "/></g></g></g><g fill="#ffffff" fill-opacity="1"><g transform="translate(169.680329, 226.362745)"><g><path d="M 9.15625 -7.1875 C 8.863281 -7.863281 8.421875 -8.390625 7.828125 -8.765625 C 7.234375 -9.148438 6.53125 -9.34375 5.71875 -9.34375 C 4.96875 -9.34375 4.289062 -9.164062 3.6875 -8.8125 C 3.09375 -8.46875 2.617188 -7.972656 2.265625 -7.328125 C 1.921875 -6.679688 1.75 -5.929688 1.75 -5.078125 C 1.75 -4.234375 1.921875 -3.484375 2.265625 -2.828125 C 2.617188 -2.179688 3.09375 -1.679688 3.6875 -1.328125 C 4.289062 -0.984375 4.96875 -0.8125 5.71875 -0.8125 C 6.425781 -0.8125 7.0625 -0.960938 7.625 -1.265625 C 8.195312 -1.578125 8.65625 -2.015625 9 -2.578125 C 9.34375 -3.140625 9.539062 -3.800781 9.59375 -4.5625 L 5.3125 -4.5625 L 5.3125 -5.390625 L 10.671875 -5.390625 L 10.671875 -4.65625 C 10.617188 -3.757812 10.375 -2.945312 9.9375 -2.21875 C 9.5 -1.5 8.914062 -0.929688 8.1875 -0.515625 C 7.457031 -0.0976562 6.632812 0.109375 5.71875 0.109375 C 4.78125 0.109375 3.925781 -0.109375 3.15625 -0.546875 C 2.394531 -0.992188 1.796875 -1.613281 1.359375 -2.40625 C 0.921875 -3.195312 0.703125 -4.085938 0.703125 -5.078125 C 0.703125 -6.078125 0.921875 -6.972656 1.359375 -7.765625 C 1.796875 -8.554688 2.394531 -9.171875 3.15625 -9.609375 C 3.925781 -10.054688 4.78125 -10.28125 5.71875 -10.28125 C 6.8125 -10.28125 7.765625 -10.003906 8.578125 -9.453125 C 9.390625 -8.910156 9.976562 -8.15625 10.34375 -7.1875 Z M 9.15625 -7.1875 "/></g></g></g><g fill="#ffffff" fill-opacity="1"><g transform="translate(181.043018, 226.362745)"><g><path d="M 6.5625 0 L 4.046875 -4.25 L 2.171875 -4.25 L 2.171875 0 L 1.15625 0 L 1.15625 -10.15625 L 4.21875 -10.15625 C 5.351562 -10.15625 6.210938 -9.882812 6.796875 -9.34375 C 7.378906 -8.800781 7.671875 -8.085938 7.671875 -7.203125 C 7.671875 -6.472656 7.457031 -5.847656 7.03125 -5.328125 C 6.613281 -4.804688 5.992188 -4.46875 5.171875 -4.3125 L 7.78125 0 Z M 2.171875 -5.078125 L 4.234375 -5.078125 C 5.023438 -5.078125 5.617188 -5.269531 6.015625 -5.65625 C 6.421875 -6.039062 6.625 -6.554688 6.625 -7.203125 C 6.625 -7.867188 6.429688 -8.382812 6.046875 -8.75 C 5.660156 -9.113281 5.050781 -9.296875 4.21875 -9.296875 L 2.171875 -9.296875 Z M 2.171875 -5.078125 "/></g></g></g><g fill="#ffffff" fill-opacity="1"><g transform="translate(189.572293, 226.362745)"><g><path d="M 5.71875 0.109375 C 4.78125 0.109375 3.925781 -0.109375 3.15625 -0.546875 C 2.394531 -0.992188 1.796875 -1.613281 1.359375 -2.40625 C 0.921875 -3.195312 0.703125 -4.085938 0.703125 -5.078125 C 0.703125 -6.078125 0.921875 -6.972656 1.359375 -7.765625 C 1.796875 -8.554688 2.394531 -9.171875 3.15625 -9.609375 C 3.925781 -10.054688 4.78125 -10.28125 5.71875 -10.28125 C 6.675781 -10.28125 7.535156 -10.054688 8.296875 -9.609375 C 9.054688 -9.171875 9.65625 -8.554688 10.09375 -7.765625 C 10.53125 -6.972656 10.75 -6.078125 10.75 -5.078125 C 10.75 -4.085938 10.53125 -3.195312 10.09375 -2.40625 C 9.65625 -1.613281 9.054688 -0.992188 8.296875 -0.546875 C 7.535156 -0.109375 6.675781 0.109375 5.71875 0.109375 Z M 5.71875 -0.78125 C 6.476562 -0.78125 7.15625 -0.953125 7.75 -1.296875 C 8.351562 -1.648438 8.828125 -2.15625 9.171875 -2.8125 C 9.523438 -3.46875 9.703125 -4.222656 9.703125 -5.078125 C 9.703125 -5.941406 9.523438 -6.695312 9.171875 -7.34375 C 8.828125 -8 8.351562 -8.5 7.75 -8.84375 C 7.15625 -9.195312 6.476562 -9.375 5.71875 -9.375 C 4.96875 -9.375 4.289062 -9.195312 3.6875 -8.84375 C 3.09375 -8.5 2.617188 -8 2.265625 -7.34375 C 1.921875 -6.695312 1.75 -5.941406 1.75 -5.078125 C 1.75 -4.222656 1.921875 -3.46875 2.265625 -2.8125 C 2.617188 -2.15625 3.09375 -1.648438 3.6875 -1.296875 C 4.289062 -0.953125 4.96875 -0.78125 5.71875 -0.78125 Z M 5.71875 -0.78125 "/></g></g></g><g fill="#ffffff" fill-opacity="1"><g transform="translate(201.022157, 226.362745)"><g><path d="M 2.140625 -10.15625 L 2.140625 -3.765625 C 2.140625 -2.753906 2.378906 -2.003906 2.859375 -1.515625 C 3.335938 -1.035156 3.992188 -0.796875 4.828125 -0.796875 C 5.660156 -0.796875 6.3125 -1.035156 6.78125 -1.515625 C 7.25 -1.992188 7.484375 -2.742188 7.484375 -3.765625 L 7.484375 -10.15625 L 8.5 -10.15625 L 8.5 -3.78125 C 8.5 -2.488281 8.15625 -1.515625 7.46875 -0.859375 C 6.789062 -0.210938 5.90625 0.109375 4.8125 0.109375 C 3.71875 0.109375 2.828125 -0.210938 2.140625 -0.859375 C 1.460938 -1.515625 1.125 -2.488281 1.125 -3.78125 L 1.125 -10.15625 Z M 2.140625 -10.15625 "/></g></g></g><g fill="#ffffff" fill-opacity="1"><g transform="translate(210.626677, 226.362745)"><g><path d="M 7.65625 -7.234375 C 7.65625 -6.359375 7.367188 -5.65625 6.796875 -5.125 C 6.222656 -4.59375 5.367188 -4.328125 4.234375 -4.328125 L 2.171875 -4.328125 L 2.171875 0 L 1.15625 0 L 1.15625 -10.15625 L 4.234375 -10.15625 C 5.359375 -10.15625 6.207031 -9.890625 6.78125 -9.359375 C 7.363281 -8.828125 7.65625 -8.117188 7.65625 -7.234375 Z M 4.234375 -5.203125 C 5.816406 -5.203125 6.609375 -5.878906 6.609375 -7.234375 C 6.609375 -7.910156 6.421875 -8.421875 6.046875 -8.765625 C 5.671875 -9.117188 5.066406 -9.296875 4.234375 -9.296875 L 2.171875 -9.296875 L 2.171875 -5.203125 Z M 4.234375 -5.203125 "/></g></g></g></svg>