<svg id="Layer_1" data-name="Layer 1" xmlns="http://www.w3.org/2000/svg" viewBox="0 0 201.35 69.02"><defs><style>.cls-1,.cls-2{fill:#fff;}.cls-2,.cls-3{stroke:#fff;stroke-miterlimit:10;stroke-width:4px;}.cls-3{fill:#231f20;}</style></defs><path class="cls-1" d="M267.28,372.71V402.2H260.1V383.76l-6.38,18.44H247.5l-6.42-18.48V402.2h-7.19V372.71h8.78l8,20.54,7.86-20.54Z" transform="translate(-205.57 -356.39)"/><path class="cls-1" d="M279.42,378.22v6.21h10v5.42h-10v6.59h11.3v5.76H272.24V372.5h18.48v5.72Z" transform="translate(-205.57 -356.39)"/><path class="cls-1" d="M310,402.2,303.61,391H302V402.2h-7.19V372.5h12.27a13.24,13.24,0,0,1,6,1.22,8.51,8.51,0,0,1,3.66,3.34,9.59,9.59,0,0,1,1.21,4.85,8.6,8.6,0,0,1-1.78,5.5,9.09,9.09,0,0,1-5.19,3.11L318,402.2ZM302,386.07h4.45a4.48,4.48,0,0,0,3.15-.95,3.65,3.65,0,0,0,1-2.79,3.73,3.73,0,0,0-1-2.77,4.33,4.33,0,0,0-3.13-1H302Z" transform="translate(-205.57 -356.39)"/><path class="cls-1" d="M336.75,402.2,330.33,391h-1.64V402.2H321.5V372.5h12.27a13.24,13.24,0,0,1,6,1.22,8.4,8.4,0,0,1,3.66,3.34,9.6,9.6,0,0,1,1.22,4.85,8.61,8.61,0,0,1-1.79,5.5,9.09,9.09,0,0,1-5.19,3.11l7.06,11.68Zm-8.06-16.13h4.45a4.48,4.48,0,0,0,3.15-.95,3.65,3.65,0,0,0,1-2.79,3.73,3.73,0,0,0-1-2.77,4.33,4.33,0,0,0-3.13-1h-4.45Z" transform="translate(-205.57 -356.39)"/><path class="cls-1" d="M355.4,372.5v29.7h-7.18V372.5Z" transform="translate(-205.57 -356.39)"/><path class="cls-1" d="M380.49,398.17a8.44,8.44,0,0,1-3.53,3.15,12.44,12.44,0,0,1-5.64,1.17,13.34,13.34,0,0,1-8.24-2.43,8.84,8.84,0,0,1-3.52-6.81h7.64a4,4,0,0,0,1.2,2.65,3.68,3.68,0,0,0,2.62,1,3.08,3.08,0,0,0,2.19-.75,2.67,2.67,0,0,0,.79-2,2.62,2.62,0,0,0-.73-1.89,6,6,0,0,0-1.83-1.24c-.73-.32-1.73-.7-3-1.15a38.15,38.15,0,0,1-4.6-1.87,8.52,8.52,0,0,1-3.07-2.69,8.74,8.74,0,0,1,.07-9.22,8.51,8.51,0,0,1,3.71-3,13.5,13.5,0,0,1,5.44-1,12.25,12.25,0,0,1,7.88,2.35,9,9,0,0,1,3.29,6.47h-7.77a3.93,3.93,0,0,0-1.07-2.33,3.16,3.16,0,0,0-2.33-.86,3,3,0,0,0-2,.67,2.79,2.79,0,0,0-.08,3.76,5.28,5.28,0,0,0,1.74,1.2q1.05.46,3,1.17a34,34,0,0,1,4.66,1.91,8.94,8.94,0,0,1,3.11,2.76,7.83,7.83,0,0,1,1.3,4.7A8.19,8.19,0,0,1,380.49,398.17Z" transform="translate(-205.57 -356.39)"/><path class="cls-1" d="M291.42,415.86a4.28,4.28,0,0,1,1.63,2.41h-1.39a3.11,3.11,0,0,0-1.21-1.5,3.57,3.57,0,0,0-2-.56,3.67,3.67,0,0,0-1.87.48,3.4,3.4,0,0,0-1.29,1.39,4.41,4.41,0,0,0-.48,2.11,4.56,4.56,0,0,0,.48,2.16,3.37,3.37,0,0,0,1.33,1.39,3.86,3.86,0,0,0,1.95.48,3.73,3.73,0,0,0,1.73-.4,3.44,3.44,0,0,0,1.28-1.18,4.13,4.13,0,0,0,.6-1.82h-4v-1h5.14v1.22a5,5,0,0,1-.76,2.2,4.46,4.46,0,0,1-1.68,1.57,4.91,4.91,0,0,1-2.41.58,5.11,5.11,0,0,1-2.61-.66,4.59,4.59,0,0,1-1.76-1.84,6.12,6.12,0,0,1,0-5.41,4.68,4.68,0,0,1,1.76-1.85,5.08,5.08,0,0,1,2.6-.67A4.91,4.91,0,0,1,291.42,415.86Z" transform="translate(-205.57 -356.39)"/><path class="cls-1" d="M300.49,425.3l-2.67-4.18h-1.43v4.18h-1.32V415.08h3.36a3.62,3.62,0,0,1,2.61.83,3.26,3.26,0,0,1,.18,4.22,3.29,3.29,0,0,1-2,.95L302,425.3Zm-4.1-5.13h1.93q2.25,0,2.25-2c0-1.31-.75-2-2.25-2h-1.93Z" transform="translate(-205.57 -356.39)"/><path class="cls-1" d="M310.77,415.61a4.88,4.88,0,0,1,1.79,1.87,5.93,5.93,0,0,1,0,5.4,4.88,4.88,0,0,1-1.79,1.87,5,5,0,0,1-2.56.66,5.11,5.11,0,0,1-2.58-.66,4.7,4.7,0,0,1-1.8-1.87,5.93,5.93,0,0,1,0-5.4,4.7,4.7,0,0,1,1.8-1.87,5.11,5.11,0,0,1,2.58-.66A5,5,0,0,1,310.77,415.61Zm-4.46,1.05a3.39,3.39,0,0,0-1.3,1.4,4.57,4.57,0,0,0-.47,2.12,4.63,4.63,0,0,0,.47,2.12,3.39,3.39,0,0,0,1.3,1.4,3.75,3.75,0,0,0,1.9.48,3.58,3.58,0,0,0,1.87-.49,3.41,3.41,0,0,0,1.31-1.4,5,5,0,0,0,0-4.23,3.35,3.35,0,0,0-1.31-1.4,3.67,3.67,0,0,0-1.87-.48A3.75,3.75,0,0,0,306.31,416.66Z" transform="translate(-205.57 -356.39)"/><path class="cls-1" d="M316.24,415.08v6.13a3.14,3.14,0,0,0,.67,2.22,2.37,2.37,0,0,0,1.84.72,2.33,2.33,0,0,0,1.81-.72,3.22,3.22,0,0,0,.65-2.22v-6.13h1.32v6.13a4.31,4.31,0,0,1-1,3.14,3.75,3.75,0,0,1-2.78,1,3.7,3.7,0,0,1-2.76-1,4.31,4.31,0,0,1-1-3.14v-6.13Z" transform="translate(-205.57 -356.39)"/><path class="cls-1" d="M325.9,421.18v4.12h-1.32V415.08h3.25a3.74,3.74,0,0,1,2.62.81,2.94,2.94,0,0,1,.87,2.24,2.87,2.87,0,0,1-.9,2.25,3.79,3.79,0,0,1-2.59.8Zm3.54-1.61a2.23,2.23,0,0,0,0-2.89,2.43,2.43,0,0,0-1.73-.5H325.9v3.9h1.81A2.43,2.43,0,0,0,329.44,419.57Z" transform="translate(-205.57 -356.39)"/><line class="cls-2" x1="2" y1="2" x2="199.35" y2="2"/><line class="cls-3" x1="2" y1="62.67" x2="2" y2="2"/><line class="cls-3" x1="199.35" y1="62.67" x2="199.35" y2="2"/><line class="cls-3" x1="137.74" y1="63.88" x2="199.35" y2="63.88"/><line class="cls-3" x1="63.07" y1="63.88" x2="1.5" y2="63.88"/></svg>